<svg xmlns="http://www.w3.org/2000/svg" xmlns:xlink="http://www.w3.org/1999/xlink" width="142" height="142" viewBox="0 0 142 142">
    <defs>
        <linearGradient id="prefix__c" x1="49.998%" x2="49.998%" y1="100.01%" y2=".024%">
            <stop offset="0%" stop-color="gray" stop-opacity=".25"/>
            <stop offset="54%" stop-color="gray" stop-opacity=".12"/>
            <stop offset="100%" stop-color="gray" stop-opacity=".1"/>
        </linearGradient>
        <linearGradient id="prefix__d" x1="100.027%" x2=".053%" y1="49.995%" y2="49.995%">
            <stop offset="0%" stop-color="gray" stop-opacity=".25"/>
            <stop offset="54%" stop-color="gray" stop-opacity=".12"/>
            <stop offset="100%" stop-color="gray" stop-opacity=".1"/>
        </linearGradient>
        <path id="prefix__a" d="M0 0H142V142H0z"/>
    </defs>
    <g fill="none" fill-rule="evenodd">
        <mask id="prefix__b" fill="#fff">
            <use xlink:href="#prefix__a"/>
        </mask>
        <g mask="url(#prefix__b)">
            <g transform="translate(2 14)">
                <circle cx="66.868" cy="61.24" r="44.27" fill="#F2F2F2" fill-rule="nonzero" opacity=".8"/>
                <ellipse cx="102.589" cy="76.829" stroke="#F3431C" stroke-width=".64" rx="10.8" ry="2.16"/>
                <path fill="url(#prefix__c)" fill-rule="nonzero" d="M36.285 58.087c.072.182.153.36.244.533v.023s1.157 4.274 1.698 5.172c.158.26.336.542.511.818-.034.203-.034.41 0 .613.164.953.362 2.263.272 2.551-.09.289.109 1.006-.204 1.255-.313.25-.634.683.325 1.258 0 0 .18.484.018.593-.018.012 0 .038.045.073-.263.781-.65 2.045-.408 2.134.132.052.492-.137.887-.39.01.051.018.106.028.162.063.42.16.835.29 1.24.176.39.352 1.05.258 1.266-.094.217.258.699.176.89-.082.19.272.807.272.807s.352 1.198.337 1.602c-.014.405.38 3.016.38 3.016s-.408 1.347-.204 1.737c.204.39.337 1.738 0 2.237-.337.499-.76 1.6-.623 1.897.137.296-.19 3.96.635 5.469.106.56.183 1.127.231 1.696 0 .41.65 1.495.65 1.495s-.392 1.635.57 1.911c.067.02.136.034.205.039.03.179.005.362-.07.527-.164.228-.28.487-.343.76-.014.052-.007.108.019.154.108.12.409 1.738.409 1.738s.433 1.817 2.819 1.374c0 0 1.613-.094 1.478-.66-.045-.188-.103-.37-.176-.548-.057-.116-.107-.234-.151-.354-.027-.135-.366-.513-.393-.769-.026-.255-.243-.754-.204-.916.039-.161-.366-1.318-.395-1.576-.033-.18-.084-.354-.153-.523l.086-.041s.216-1.212.028-1.656c-.188-.444-.936-1.022-.936-1.022s.108-2.977-.027-3.381c-.135-.405.068-1.938.068-1.938s.46-2.17.433-2.658c-.015-.303.03-.605.135-.89 0 0 .286-3.19.474-3.595.189-.405.41-4.363.41-4.363l.126.364c.178.546.39 1.08.634 1.6.104.164.409.688.67 1.125l.387.654s.176.634.053 1.022c-.123.389 1.261 2.49 1.261 2.49-.089.176-.135.37-.135.567.04.204-.42.848-.42.848s-.177.579-.068.781c.108.202-.176 1.4-.176 1.4s-.462 2.64-.57 2.95c-.109.311.055 2.437.055 2.437s-.85 2.177-.456 2.901c.016.268.018.677-.086.842-.141.221-.1 1.037-.086 1.262v.059s-.462.613.12.863c.583.249 2.564.429 2.564.429s1.883.54 2.79.687c.908.147 2.808.094 2.943-.458.048-.172.064-.35.049-.528-.025-.227-.167-.426-.374-.523-.559-.222-1.13-.41-1.71-.566 0 0-.895-.205-.977-.593-.081-.388-1.355-1.468-1.355-1.468s-.014-.075-.041-.178h.04l-.06-.061c-.064-.204-.166-.474-.29-.423-.04-.074-.048-.16-.021-.24.026-.08.084-.145.16-.181.488-.268.786-1.117.65-2.032-.138-.916-.162-.755.122-1.28.176-.397.247-.833.204-1.266l.75-2.796c.118-.344.191-.701.217-1.063.013-.285.087-.564.217-.818 0 0 .34-1.94.638-2.384.298-.443-.204-2.007-.204-2.007s-.46-2.423-.434-3.529c.027-1.106-1.194-4.94-1.194-4.94-.156-.25-.223-.545-.188-.837.025-.229-.118-.6-.28-.934l-.051-.104c.062-.08.138-.15.223-.205.335-.204.493-.742.495-1.12L47.958 59.7c0-.033 2.14-4.406 2.135-4.438-.127-.718-1.337-2.621-1.337-2.621-.012-.024-.03-.045-.051-.06-.272-.124-1.192-.646-1.192-.646-.722-.89-1.399-1.075-1.84-1.069-.139-.001-.277.02-.41.064-.046.014-.092.033-.136.055l-.02.178c-.038-.412-.006-.826.096-1.227.01-.035.02-.071.028-.106h.205c.874.002 1.713-.342 2.333-.958.62-.616.97-1.453.972-2.327 0-.308-.042-.614-.126-.91l-.017-.047.102-.045c.41-.151.922.106 1.254-.168.12-.119.206-.268.249-.431.092-.219.153-.45.182-.685v-.123-.036-.045-.056c0-.018 0 0 0 0-.019-.15-.08-.292-.176-.408-.217-.254-.578-.315-.852-.501-.224-.174-.41-.392-.546-.64-.137-.247-.316-.468-.53-.652-.221-.186-.527-.234-.795-.125-.08.055-.168.096-.262.123-.101.001-.2-.026-.288-.078-.94-.44-2.044-.362-3.066-.231-.416.033-.823.13-1.208.29-.39.16-.69.484-.818.885-.084.317-.02.66-.12.974-.07.204-.205.392-.291.598-.042.109-.068.222-.078.338v.033c-.035.464.147.952.235 1.43.12.653.06 1.362.34 1.98.028.075.063.148.106.216-.098.205-.204.421-.307.624-.151-.043-.613-.146-.63.26-.003.328-.08.652-.224.948-.022.017-.044.033-.068.047-.05.023-.081.077-.075.133l-.053.04c-.024.002-.046.01-.066.023-.028-.049-.123-.053-.421.303-.397.413-.854.764-1.355 1.042 0 0-2.008 1.4-2.116 2.045-.109.644-.78 3.457-.436 4.39zm8.815-6.832v-.023l.025.012-.025.01zm5.455 45.792c-.055.023-.113.035-.172.035l.172-.035z"/>
                <path fill="#444053" fill-rule="nonzero" d="M45.932 102.743c-2.357.441-2.786-1.366-2.786-1.366s-.294-1.607-.409-1.727c-.026-.047-.032-.102-.018-.154.061-.272.177-.529.34-.756.146-.174.026-.897.026-.897l2.73-.695c.118.257.207.527.269.803.028.253.429 1.406.388 1.566-.04.16.176.656.205.912.028.255.361.63.388.762.041.121.09.24.147.354.073.176.131.358.174.544.139.56-1.454.654-1.454.654z"/>
                <path fill="#000" fill-rule="nonzero" d="M45.932 102.743c-2.357.441-2.786-1.366-2.786-1.366s-.294-1.607-.409-1.727c-.026-.047-.032-.102-.018-.154l.566 1.636s.47.98 2.21.83c.991-.082 1.478-.266 1.715-.409.073.176.131.358.174.544.141.552-1.452.646-1.452.646z" opacity=".1"/>
                <path fill="#000" fill-rule="nonzero" d="M44.097 100.198s.59.014.63-.468l-.63.468z" opacity=".1"/>
                <path fill="#3F3D56" fill-rule="nonzero" d="M54.343 84.369c-.295.441-.63 2.369-.63 2.369-.125.255-.194.534-.204.818-.022.36-.09.716-.205 1.059l-.775 2.772c.042.43-.029.862-.204 1.257-.28.523-.253.362-.12 1.274.132.911-.16 1.754-.643 2.021-.482.268.215.898.215.898s-3.08.83-3.725.32c-.644-.508.336-3.025.336-3.025s-.16-2.116-.053-2.424c.106-.31.562-2.934.562-2.934s.282-1.192.173-1.392c-.108-.2.068-.777.068-.777s.456-.644.409-.844c0-.196.047-.388.135-.562 0 0-1.366-2.09-1.247-2.478.118-.389-.053-1.022-.053-1.022s-.172-.297-.38-.65c-.254-.436-.56-.955-.665-1.119-.24-.517-.448-1.048-.624-1.59l-.126-.364s-.205 3.937-.41 4.338c-.204.4-.467 3.578-.467 3.578-.105.282-.15.582-.135.883.026.494-.43 2.657-.43 2.657s-.204 1.527-.065 1.93c.139.403.027 3.361.027 3.361s.735.576.924 1.022c.188.446-.027 1.648-.027 1.648s-2.142 1.071-3.095.789c-.953-.282-.562-1.901-.562-1.901s-.642-1.071-.642-1.486c-.048-.567-.124-1.13-.23-1.69-.817-1.5-.494-5.14-.627-5.437-.133-.296.28-1.392.614-1.887.333-.495.204-1.84 0-2.224-.205-.384.204-1.728.204-1.728s-.388-2.598-.374-2.999c.014-.4-.335-1.594-.335-1.594s-.348-.613-.268-.804c.08-.19-.268-.67-.174-.883.094-.212-.082-.87-.256-1.259-.127-.4-.222-.81-.286-1.227-.082-.462-.14-.868-.14-.868l2.21-1.781 5.519-1.447 2.093-.681 2.022 3.187s.204.333.395.718c.159.33.3.7.276.93-.034.29.032.583.188.83 0 0 1.204 3.816 1.177 4.906-.026 1.09.43 3.51.43 3.51s.494 1.56.2 2.002z"/>
                <path fill="#000" fill-rule="nonzero" d="M41.942 86.364s2.357-1.004 3.052-.295c.695.71-3.052.295-3.052.295zM43.267 86.764s-2.39 1.352-1.572 1.568c.817.217 1.572-1.568 1.572-1.568zM50.391 85.601s-1.022.066-.63.268c.393.202.63-.268.63-.268zM51.665 85.908c-.015.067-2.96 1.022-2.384 1.447.577.425 2.384-1.447 2.384-1.447zM42.29 94.104c.441-.066 2.906-1.205 1.942-.387-.527.478-1.274.627-1.943.387zM43.508 95.001s.215.832 1.032.724c.818-.109-1.032-.724-1.032-.724zM42.825 96.69c.147-.041 1.901-.845 1.942-.469.041.377-1.674 1.023-1.807.83-.077-.106-.124-.23-.135-.361zM48.504 95.725c.205-.013 2.222-.657 2.625-.08l-2.625.08zM50.326 96.1s.347-.308.695-.146c.347.161-.695.147-.695.147zM45.88 99.42c.044.234.222.418.453.471l-.454-.47z" opacity=".1"/>
                <path fill="#444053" fill-rule="nonzero" d="M56.097 100.68c-.133.55-2.01.603-2.905.456-.896-.147-2.76-.683-2.76-.683s-1.954-.188-2.53-.43c-.577-.24-.121-.856-.121-.856v-.057c-.015-.225-.054-1.036.083-1.255.162-.256.068-1.086.068-1.086s2.772.536 2.825.282c.053-.253.482-.613.683-.697.2-.083.35.67.35.67s1.259 1.072 1.338 1.46c.08.389.963.59.963.59.574.153 1.138.34 1.689.561.205.097.346.294.37.52.014.177-.004.355-.053.525z"/>
                <path fill="#000" fill-rule="nonzero" d="M56.097 100.68c-.133.55-2.01.603-2.905.456-.896-.147-2.76-.683-2.76-.683s-1.954-.188-2.53-.43c-.577-.24-.121-.856-.121-.856v-.057l2.802.613s1.38.59 2.263.59c.773 0 2.5.316 3.304-.164.015.179-.003.359-.053.531z" opacity=".1"/>
                <path fill="#000" fill-rule="nonzero" d="M52.307 98.564s-.133.883-.669 1.18l.669-1.18z" opacity=".1"/>
                <path fill="#A1616A" fill-rule="nonzero" d="M60.89 66.01c-.797.303-2.636.336-3.454.336h-.41l-.524-1.071.525-.894s.482-.133 1.124-.25c.947-.169 2.25-.302 2.862.08 1.03.64.92 1.417-.122 1.8z"/>
                <path fill="#F3431C" fill-rule="nonzero" d="M48.713 53.19l.233-.267s1.196 1.893 1.32 2.606c.125.714.287 1.536.287 1.536s.302.928.5 1.339c.17.31.301.641.393.983.016.178-.072.57.303.818.374.247.464.928.464.928s1.357 1.32 2.073 1.357c.715.037 2.765.393 2.696.748-.07.356.857.573 1.227.663.37.09-2.409 1.163-.773 2.545 0 0-1.037.204-1.143.464-.106.26-1.196-.143-1.196-.143s-.233-.554-1.036-.589c-.804-.035-1.215-.392-1.215-.445 0-.054-.803-.501-1.249-.626-.445-.125-1.036-.178-1.055-.305-.018-.126-2.678-11.605-2.678-11.605l.849-.006z"/>
                <path fill="#CFCCDF" fill-rule="nonzero" d="M48.713 53.236l.233-.268s1.196 1.893 1.32 2.608c.125.716.287 1.536.287 1.536s.302.928.5 1.339c.169.31.3.64.393.98.016.18-.072.573.303.819.374.245.464.928.464.928s1.357 1.322 2.073 1.357c.715.035 2.765.393 2.696.75-.07.358.857.573 1.227.66.37.089-2.409 1.166-.773 2.542 0 0-1.037.204-1.143.464-.106.26-1.196-.143-1.196-.143s-.233-.554-1.036-.589c-.804-.035-1.215-.392-1.215-.448 0-.055-.803-.498-1.249-.623-.445-.125-1.036-.18-1.055-.305-.018-.124-2.678-11.607-2.678-11.607h.849z"/>
                <path stroke="#F3431C" stroke-width=".64" d="M76.04 101.768c13.492 0 24.429 2.197 24.429 4.906 0 2.709-10.937 4.906-24.43 4.906-13.492 0-24.43-2.195-24.43-4.906"/>
                <path fill="#444053" fill-rule="nonzero" d="M65.377 0.18H68.871V26.157H65.377z" transform="rotate(9.63 67.124 13.169)"/>
                <path fill="#D0D2D5" fill-rule="nonzero" d="M75.086 103.442L75.851 108.9 76.505 103.225z"/>
                <path fill="#3F3D56" fill-rule="nonzero" d="M50.526 100.386L50.526 103.771 51.291 106.717 51.836 106.717 52.493 103.552 52.82 99.732z"/>
                <path fill="#D0D2D5" fill-rule="nonzero" d="M48.97 87.18l1.636.327s-1.854 5.129-.546 6.22h-2.071s-.765-3.929.981-6.548z"/>
                <path fill="#000" fill-rule="nonzero" d="M48.97 87.18l1.636.327s-1.854 5.129-.546 6.22h-2.071s-.765-3.929.981-6.548z" opacity=".1"/>
                <path fill="#F3431C" fill-rule="nonzero" d="M59.914 25.509l-5.24 33.18s-7.748 35.368-4.802 42.353h3.712L64.718 33.15l-4.804-7.641zM73.202 21.387l4.017 33.351s2.925 42.487-.278 49.358h-3.165l-5.655-75.25 5.08-7.459z"/>
                <path fill="#444053" fill-rule="nonzero" d="M59.425 13.386c.554-1.863 2.291-3.12 4.234-3.067 3.232.082 8.228.67 10.835 3.34 4.04 4.149-2.73 18.12-2.73 18.12s-6.337 11.679-12.114-3.165c-.008.012-2.404-7.936-.225-15.228z"/>
                <path fill="#000" fill-rule="nonzero" d="M59.425 13.386c.554-1.863 2.291-3.12 4.234-3.067 3.232.082 8.228.67 10.835 3.34 4.04 4.149-2.73 18.12-2.73 18.12s-6.337 11.679-12.114-3.165c-.008.012-2.404-7.936-.225-15.228z" opacity=".1"/>
                <path fill="#444053" fill-rule="nonzero" d="M61.647 16.223c.4-1.323 1.634-2.215 3.015-2.179 2.3.06 5.857.478 7.708 2.38 2.876 2.952-1.943 12.9-1.943 12.9s-4.497 8.313-8.627-2.25c0-.006-1.707-5.658-.153-10.85z"/>
                <path fill="url(#prefix__d)" fill-rule="nonzero" d="M72.836 101.224c.034.527.116 1.081.45 1.494.551.683 1.555.736 2.414.95.659.19 1.298.441 1.91.753l1.857.88c-.476.027-.946.125-1.394.29-.239.087-.5.233-.535.482-.01.213.113.41.308.495.194.08.404.117.614.108 1.106.031 2.214-.027 3.311-.174l.131-.018c.564.28 1.126.565 1.685.857.233.122.513 0 .71-.172.239-.212.45-.454.629-.72.032.057.065.113.092.168.18.345.35.797.092 1.091-.205.23-.591.268-.708.546-.065.207.012.431.19.554.178.118.383.188.595.205.506.07 1.019.065 1.523-.013.274-.019.533-.129.736-.312.174-.237.266-.524.262-.818l.35-3.972c.031-.189.017-.382-.041-.564-.14-.338-.542-.479-.906-.538h-.039c.303 0 .614-.014.94-.014.286.018.571-.018.843-.107.52-.204.8-.75 1.022-1.253.409-.883.88-1.84.818-2.82l-.16-.072c-.014-1.045-.451-2.02-.613-3.04.177-.274.272-.594.272-.92-.021-.36-.1-.713-.231-1.047-.648-1.926-1.296-3.858-2.163-5.698-.56-1.225-1.246-2.39-2.044-3.475-.209-.272-.425-.545-.65-.818-.164-.188-.53-.453-.597-.693-.068-.239.075-.472 0-.717-.02-.064-.044-.126-.074-.186.478-.634.344-1.55.176-2.339l-.205-.983c-.043-.271-.129-.534-.253-.78-.132-.21-.297-.396-.489-.553-1.005-.908-2.248-1.51-3.379-2.263-1.196-.795-2.265-1.762-3.336-2.717-.327-.29-.738-.603-1.161-.48-.424.122-.6.58-.614.997-.007.585.234 1.146.665 1.542.74.676 1.858.731 2.74 1.21.302.176.59.376.86.599l2.56 2.01c.193.115.336.301.398.519.01.13-.011.262-.061.384-.096.294-.26.664-.38 1.038l-.205-.147c-.424-.316-.878-.59-1.355-.817-.634-.26-1.303-.42-1.985-.477-1.511-.17-2.863.064-3.787 1.325-.191.288-.434.538-.717.738-.21.097-.405.222-.583.37-.474.525-.204 1.396.241 1.84.378.35.842.593 1.346.701.574 1.281 2.018 1.929 3.356 1.505.032.263.038.528.019.793-.02.275.086.545.288.734.108.073.226.128.352.163.452.164.88.387 1.273.665-.461.5-.842 1.069-1.128 1.686-.357.832-.28 1.787.204 2.552l.013.016c-.035.127-.099.245-.187.343-.259.202-.63.165-.844-.086-.175-.207-.324-.436-.441-.68-.41-.668-1.074-1.138-1.84-1.3-.28-.072-.575-.06-.849.034-.274.099-.466.348-.492.638 0 .309.225.564.445.783.678.703 1.432 1.327 2.25 1.86.222.138.452.264.688.377l-1.21-.252c-.558-.139-1.134-.19-1.707-.15-.58.046-1.106.353-1.431.835-.226.428-.273.927-.133 1.39.142.46.353.894.627 1.288.43.723.958 1.383 1.568 1.963-.51.153-1.022.32-1.52.505-.5.184-1.023.408-1.252.866-.134.33-.177.69-.124 1.043zm7.525-6.95h.018c.109-.05.202-.129.268-.228.31-.415.53-.892.646-1.398.119-.016.235-.045.348-.088-.155.147-.242.351-.242.564l1.153.565c.084.03.155.087.205.161.031.076.04.16.022.241-.033.264-.084.528-.116.79-.346-.103-.685-.185-.99-.266-.433-.119-.873-.23-1.312-.34v-.002z"/>
                <path fill="#FABDBD" fill-rule="nonzero" d="M80.575 83.414c.587.146 1.207.047 1.718-.276.1-.071.214-.124.333-.156.215-.018.426.066.568.227.49.489.548 1.294.295 1.938-.254.644-.763 1.151-1.297 1.59-.43.356-.886.68-1.363.97-.265-.622-.77-1.112-1.398-1.36-.56-.216-.97-.797-1.29-1.304-.24-.376-.452-.36-.237-.748.242-.373.527-.716.85-1.022.176-.186.33-.392.458-.614.143-.257.11-.425.331-.22.145.135.204.427.372.584.186.181.412.315.66.39zM82.332 79.427c.047-.12.068-.249.059-.378-.061-.214-.2-.397-.39-.513l-2.5-1.983c-.263-.22-.544-.418-.839-.59-.863-.473-1.952-.528-2.676-1.195-.42-.394-.657-.946-.65-1.523 0-.408.204-.87.59-.985.387-.114.818.188 1.137.476 1.045.94 2.088 1.895 3.255 2.68 1.104.745 2.32 1.337 3.303 2.235.18.153.334.333.456.533.12.244.204.503.248.771l.204.97c.172.817.31 1.768-.239 2.395-.162.204-.406.324-.666.33-.182-.023-.357-.083-.514-.177-.408-.204-1.149-.408-1.273-.92-.16-.64.3-1.533.495-2.126zM78.343 92.204c-.17-.205-.315-.43-.431-.67-.396-.657-1.046-1.122-1.795-1.284-.27-.068-.554-.057-.818.033-.27.099-.457.345-.48.631 0 .303.218.556.433.771.661.695 1.4 1.312 2.2 1.84.801.526 1.72.845 2.676.928.096.012.194.003.286-.026.106-.05.196-.127.262-.223.507-.65.682-1.495.817-2.306-.049.292-1.694-.39-1.88-.303-.274.129-.248.513-.446.697-.253.2-.62.162-.824-.088zM90.333 98.628c.01.102-.01.205-.057.296-.113.176-.366.178-.573.147-.476-.08-.947-.194-1.408-.34l-4.197-1.211c-.067-.013-.129-.044-.18-.088-.044-.053-.074-.116-.084-.184-.146-.602-.177-1.227-.092-1.84.005-.089.034-.174.084-.248.094-.087.219-.134.347-.13.658-.067 1.319-.097 1.98-.09.428.018.858.008 1.285-.029.552-.065 1.188-.382 1.742-.333.48.04.46.409.509.818.137 1.085.634 2.124.644 3.232z"/>
                <path fill="#3F3D56" fill-rule="nonzero" d="M76.932 93.646c-.544-.14-1.107-.19-1.668-.15-.566.045-1.08.346-1.396.818-.223.423-.27.917-.13 1.374.14.451.346.88.612 1.27.472.815 1.078 1.545 1.793 2.158.358.284.753.52 1.096.818.732.64 1.186 1.533 1.621 2.402.41.818.818 1.652.994 2.551.003.07.035.136.088.182.056.028.122.032.182.013l2.013-.373c.116.005.226-.054.285-.154.059-.1.058-.225-.003-.324-.436-1.878-1.254-3.646-2.402-5.195 1.082 1.023 2.591 1.46 4.052 1.174.282-.04.547-.155.769-.333.45-.41.43-1.106.329-1.701-.09-.53-.214-1.054-.372-1.568-.378-1.227-2.01-1.558-3.116-1.856-1.57-.416-3.152-.785-4.747-1.106z"/>
                <path fill="#000" fill-rule="nonzero" d="M78.423 97.992c.287.114.548.286.764.507-.362-.409-1.396-.613-1.903-.804-.628-.233-1.312-.472-1.84-.887 1.02.322 2.016.718 2.979 1.184z" opacity=".1"/>
                <path fill="#CFCCDF" fill-rule="nonzero" d="M84.944 106.609c.174.343.34.787.09 1.079-.192.225-.576.264-.69.538-.065.203.01.425.185.548.173.117.373.187.58.204.495.067.996.063 1.489-.012.267-.02.52-.129.718-.309.172-.237.261-.525.255-.818l.341-3.92c.03-.187.017-.378-.038-.559-.137-.333-.53-.47-.886-.53-.397-.067-.802-.083-1.204-.048-.27.003-.534.094-.75.257-.2.229-.324.515-.354.818-.092.466-.35 1.112-.294 1.584.035.39.386.824.558 1.168zM80.43 105.341c-.766-.1-1.546-.012-2.27.256-.234.086-.49.23-.524.476-.01.21.11.404.302.489.19.079.395.116.601.108 1.081.029 2.163-.029 3.234-.172.279-.018.549-.103.787-.247.244-.155.346-.457.248-.728-.129-.27-.48-.354-.65-.597-.123-.176-.154-.435-.346-.527-.145-.046-.302-.035-.44.032-.204.072-.694.144-.835.313-.061.194-.097.394-.107.597z"/>
                <circle cx="77.536" cy="82.874" r="2.684" fill="#FABDBD" fill-rule="nonzero"/>
                <path fill="#CFCCDF" fill-rule="nonzero" d="M83.902 81.693c-.432-.317-.976-.426-1.501-.524-.177-.055-.369-.046-.54.027-.113.082-.202.191-.26.319-.161.262-.281.548-.355.848-.073.304.003.625.204.865.16.163.389.245.552.409.215.24.305.567.242.883-.066.31-.188.606-.358.873-.394.695-.844 1.356-1.345 1.979-.522.648-1.106 1.271-1.413 2.044-.347.823-.27 1.763.204 2.519.497.723 1.487 1.112 2.306.799-.15.145-.235.346-.233.556l1.125.558c.083.03.154.086.204.16.03.075.038.157.02.237-.087.453-.133.914-.136 1.375.03.46.24.945.658 1.145.382.184.836.086 1.253 0 .974-.197 1.965-.301 2.958-.31.495 0 1.006.012 1.462-.18.624-.276 1.03-.89 1.036-1.572-.02-.355-.097-.704-.226-1.035-.632-1.901-1.266-3.806-2.112-5.624-.552-1.21-1.223-2.36-2.006-3.434-.204-.272-.409-.54-.636-.8-.159-.186-.517-.447-.582-.684-.066-.238.073-.467 0-.708-.092-.291-.275-.545-.521-.725z"/>
                <path fill="#3F3D56" fill-rule="nonzero" d="M90.488 98.683c-1.177-.544-2.355-1.088-3.58-1.51-.9-.312-1.907-.555-2.792-.205-.266.106-.507.26-.762.384-.857.409-1.84.478-2.787.583-2.106.237-4.176.729-6.163 1.465-.477.176-.99.41-1.227.855-.134.323-.18.676-.13 1.022.034.521.114 1.07.439 1.476.54.675 1.519.726 2.357.938.645.187 1.27.436 1.866.745 1.959.934 3.92 1.868 5.84 2.88.226.12.5 0 .692-.17.579-.537.996-1.225 1.206-1.987.208-.758.312-1.54.307-2.326.752 0 1.363-.033 2.116-.033.276.017.554-.018.817-.104.505-.205.78-.742 1.006-1.237.405-.873.86-1.82.795-2.776z"/>
                <path fill="#000" fill-rule="nonzero" d="M76.816 101.477c.53-.257 1.143-.263 1.734-.26.36-.006.72.022 1.075.083.542.144 1.069.342 1.572.59 1.254.527 2.602.79 3.962.777" opacity=".1"/>
                <path fill="#3F3D56" fill-rule="nonzero" d="M73.762 83.254c.404.374.906.625 1.447.726.532.123 1.08.17 1.615.288.658.145 1.378.493 1.527 1.151.035.264.042.53.02.796-.02.268.082.531.277.717.105.071.22.126.343.162 2.194.838 3.654 2.933 3.68 5.282.682-.398 1.147-1.083 1.263-1.864 0 .711.614 1.43.266 2.066.767-.5 1.288-1.3 1.438-2.203.15-.904-.087-1.828-.65-2.55-.27-.343-.614-.63-.896-.958-.81-.935-1.194-2.165-1.06-3.394.06-.517.205-1.04.097-1.55-.158-.705-.777-1.195-1.366-1.614-.414-.312-.857-.582-1.325-.806-.618-.256-1.272-.415-1.94-.472-1.474-.166-2.784.063-3.698 1.308-.185.285-.422.532-.699.728-.205.097-.397.22-.57.366-.468.52-.203 1.378.23 1.821z"/>
                <path fill="#A1616A" fill-rule="nonzero" d="M46.192 53.324c-.084-.035-5.91-2.441-5.11-2.92.476-.284 1.062-1.486 1.463-2.428.28-.657.47-1.188.47-1.188s4.678-.83 3.003 2.044c-.264.44-.463.916-.59 1.413-.483 1.942.717 3.042.764 3.079z"/>
                <path fill="#000" fill-rule="nonzero" d="M46.012 48.824c-.264.44-.463.916-.59 1.413-1.21-.087-2.271-.834-2.76-1.942-.048-.104-.089-.21-.123-.32.28-.656.47-1.187.47-1.187s4.677-.83 3.003 2.036z" opacity=".1"/>
                <path fill="#A1616A" fill-rule="nonzero" d="M48.92 46.87c-.008 1.54-1.09 2.868-2.597 3.185-1.508.318-3.033-.46-3.661-1.867-.185-.415-.28-.864-.279-1.318.009-1.624 1.206-2.995 2.814-3.222 1.607-.227 3.138.759 3.595 2.316.084.295.127.6.127.906z"/>
                <path fill="#000" fill-rule="nonzero" d="M52.072 72.188c-.234.255-.398.567-.475.904 0 0-1.607 1.098-1.5.409.106-.689-.838-3.516-.838-3.516l.106 3.83s-5.142-.24-5.52-.613c-.378-.372-2.56-1.101-2.56-1.101s-.672.54-1.291.948c-.082-.462-.141-.869-.141-.869l2.21-1.78 5.52-1.448 2.072-.666 2.022 3.187s.208.331.395.715z" opacity=".1"/>
                <path fill="#444053" fill-rule="nonzero" d="M52.24 71.886c-.428.268-.59.991-.59.991s-1.606 1.098-1.5.41c.106-.69-.83-3.509-.83-3.509l.108 3.831s-5.143-.241-5.52-.613c-.376-.372-2.571-1.098-2.571-1.098s-1.901 1.527-2.249 1.392c-.347-.135.613-2.73.613-2.73l.99-15.215s-.268-4.526.135-4.687c.062-.025.119-.06.167-.107.266-.237.346-.72.368-1.126.027-.48.669-.241.669-.241l-.374.482 3.32 2.018.028.018c.133-.068.27-.129.41-.182.294-.112.684-.218.94-.112.142.073.264.182.351.317.19.284.342.592.452.916l1.206 2.034s.613 2.706.613 2.813c0 .106.189 2.572.41 2.84.22.267.429 1.606.349 2.009-.08.403.133 1.901.133 1.901.885.724 1.339 3.187 1.339 3.187s1.394 2.76 1.5 3.081c.107.321-.039 1.112-.468 1.38z"/>
                <path fill="#000" fill-rule="nonzero" d="M44.98 51.78c-.327.483-1.268 1.16-1.268 1.16l-2.715-2.292c.266-.238.346-.722.368-1.127.027-.482.669-.241.669-.241l-.078.1c-.075.097-.105.222-.083.343.023.12.095.226.2.29l2.907 1.767z" opacity=".1"/>
                <path fill="#444053" fill-rule="nonzero" d="M44.98 51.672c-.327.482-1.268 1.16-1.268 1.16l-2.715-2.293c.266-.237.346-.72.368-1.126.027-.48.669-.241.669-.241l-.078.1c-.075.097-.105.222-.083.343.023.12.095.226.2.29l2.907 1.767z"/>
                <path fill="#000" fill-rule="nonzero" d="M46.235 52.034c-.352.419-.848.895-.818.656.03-.24-.296-.765-.499-1 .319-.1.661-.09.974.027.14.074.258.183.343.317z" opacity=".1"/>
                <path fill="#444053" fill-rule="nonzero" d="M46.288 51.872c-.351.421-.848.895-.818.658.031-.237-.263-.625-.468-.86.295-.113.685-.22.94-.113.142.073.26.182.346.315z"/>
                <path fill="#000" fill-rule="nonzero" d="M41 50.672s.034-.32-.43.233c-.39.406-.837.752-1.329 1.026 0 0-1.98 1.395-2.089 2.045-.108.65-.75 3.428-.409 4.356.342.928 2.93 5.377 2.93 5.377s-.679.803-.52 1.75c.16.946.358 2.248.268 2.535-.09.286.109 1-.204 1.249-.313.249-.624.678.323 1.25 0 0 .178.483.016.59-.161.106 2.376 1.214 3.375.625 1-.589 2.805-5.303 2.84-6.358.035-1.055-.554-4.534-.875-5.356-.321-.822-1.286-4.019-1.697-4.732-.41-.714-2.2-4.59-2.2-4.59z" opacity=".1"/>
                <path fill="#CFCCDF" fill-rule="nonzero" d="M40.891 50.672s.037-.32-.427.233c-.392.41-.843.759-1.34 1.035 0 0-1.982 1.394-2.088 2.044-.107.65-.75 3.428-.41 4.356.342.928 2.928 5.377 2.928 5.377s-.679.803-.517 1.75c.161.946.358 2.249.268 2.535-.09.286.106 1-.205 1.249-.31.25-.625.679.321 1.25 0 0 .18.483.019.59-.162.106 2.375 1.214 3.375.625s2.803-5.303 2.84-6.358c.036-1.054-.555-4.534-.876-5.356-.32-.822-1.285-4.019-1.696-4.732-.411-.714-2.192-4.598-2.192-4.598z"/>
                <path fill="#000" fill-rule="nonzero" d="M40.178 53.708s1.535 1.697 1.482 2.821c0 0 .018-1.821-1.482-2.821zM45.36 51.28s.996-.614 2.249.946c0 0 .91.517 1.177.644.268.126.573 3.444.573 3.444s.588 1.431.427 2.25c-.162.817.466 3.642.466 3.642s1.035 5.072 1 5.213c-.035.141-1.055-1.588-1.037-2.453.019-.865-.856-3.537-.981-3.696-.125-.16-.983-4.751-.983-4.751s-.695-1.946-1.143-2.588c-.448-.642-1-1.859-1.227-2.073-.166-.144-.352-.264-.552-.356l.031-.223z" opacity=".1"/>
                <path fill="#CFCCDF" fill-rule="nonzero" d="M45.348 51.28s1.116-.614 2.365.946c0 0 .912.517 1.18.644.267.126.57 3.444.57 3.444s.589 1.431.43 2.25c-.16.817.463 3.642.463 3.642s1.037 5.072 1 5.213c-.037.141-1.053-1.588-1.036-2.453.016-.865-.857-3.537-.982-3.696-.124-.16-.981-4.751-.981-4.751s-.697-1.93-1.143-2.578c-.445-.648-1.001-1.858-1.226-2.073-.199-.155-.422-.275-.66-.356l.02-.233z"/>
                <path fill="#A1616A" fill-rule="nonzero" d="M50.25 62.44s2.124-1.393 3.15-.706c1.027.687 2.707 1.662 1.055 2.367-1.652.705-3.937.57-3.937.57l-.268-2.232z"/>
                <path fill="#000" fill-rule="nonzero" d="M48.772 75.876c-.317.681-.579 4.09-.756 5.177-.254-.436-.56-.955-.665-1.119-.24-.517-.447-1.048-.623-1.59.204-.49.758-1.897.758-2.412 0-.63 1.022-1.421 1.022-1.421.375.35.482.901.264 1.365zM48.792 45.964c-.05.026-.104.048-.159.065-.251.068-.497-.102-.72-.237-.222-.135-.531-.235-.725-.059-.252.229-.07.718-.33.938-.163.141-.423.092-.613.205-.19.112-.237.368-.284.584-.047.217-.137.467-.352.53-.214.063-.408-.076-.613-.07-.043 0-.094 0-.123-.024-.019-.028-.026-.063-.02-.096.025-.26.002-.523-.07-.775-.076-.256-.283-.45-.543-.511-.376-.057-.693.272-.914.583-.232.327-.443.668-.632 1.022-.01.018-.02.043-.032.071-.185-.415-.28-.864-.279-1.318.009-1.624 1.206-2.995 2.814-3.222 1.607-.227 3.138.759 3.595 2.316v-.002z" opacity=".1"/>
                <path fill="#3F3D56" fill-rule="nonzero" d="M43.33 47.045c.22-.31.538-.64.914-.582.26.06.466.254.544.509.071.251.094.514.067.775-.005.034.003.069.023.098.028.032.08.026.122.024.205 0 .42.13.614.07s.306-.313.351-.53c.045-.216.096-.466.284-.584.188-.119.444-.068.614-.205.26-.22.077-.711.329-.938.194-.176.503-.076.725.06.223.134.469.304.72.236.083-.03.164-.064.243-.104.399-.151.914.106 1.24-.166.118-.119.203-.267.247-.429.09-.218.15-.447.18-.68.029-.238-.036-.477-.18-.667-.205-.25-.573-.313-.845-.497-.22-.173-.403-.39-.537-.636-.135-.246-.312-.466-.524-.65-.219-.184-.522-.231-.787-.122-.078.055-.165.095-.257.12-.1.003-.2-.024-.285-.077-.928-.438-2.01-.36-3.027-.23-.41.033-.814.13-1.194.289-.384.162-.678.484-.806.88-.081.316-.018.657-.118.968-.068.204-.205.39-.286.597-.217.564.043 1.186.153 1.78.12.65.06 1.354.335 1.97.055.12.115.33.252.25.1-.059.204-.408.255-.508.19-.353.402-.694.634-1.02z"/>
                <path fill="#000" fill-rule="nonzero" d="M37.446 57.512l-.482 1.37s1.143 4.25 1.678 5.144c.536.893 1.321 2.044 1.321 2.044.897.402 1.894.526 2.862.356 1.535-.303 6.017-1.106 6.017-1.106.215.039.435-.044.572-.215.204-.286 1.214-.43 1.214-.43s1.178-1.713-.268-2.428c0 0-.177.395-.946.125-.769-.27-1 .214-1 .214s-1.25.252-1.946.162c-.695-.09-2.429-.125-2.608-.268-.045-.04-.105-.06-.165-.057-.06.003-.116.03-.156.075-.207-.074-.4-.183-.57-.323-.144-.159-.34.18-.34.18s-.252-.143-.18-.32c.071-.179-.231-.86-.231-.86-.08-.26-.099-.534-.053-.803.088-.357-.448-1.635-.448-1.635-.006-.217.018-.434.072-.644.09-.321-.68-.965-.68-.965s-.75-3.64-2.338-2.453c-1.588 1.188-1.325 2.837-1.325 2.837z" opacity=".1"/>
                <path fill="#CFCCDF" fill-rule="nonzero" d="M37.338 57.512l-.482 1.37s1.142 4.25 1.678 5.144c.536.893 1.323 2.044 1.323 2.044.896.403 1.894.527 2.862.356 1.537-.303 6.018-1.106 6.018-1.106.216.039.436-.044.573-.215.204-.286 1.214-.43 1.214-.43s1.178-1.713-.268-2.428c0 0-.18.395-.946.125-.767-.27-1.002.214-1.002.214s-1.25.252-1.946.162c-.697-.09-2.429-.125-2.607-.268-.045-.04-.104-.06-.164-.057-.06.003-.117.03-.157.075-.207-.074-.401-.183-.572-.323-.143-.159-.34.18-.34.18s-.249-.143-.177-.32c.071-.179-.233-.86-.233-.86-.08-.26-.098-.534-.054-.803.09-.357-.445-1.635-.445-1.635-.008-.217.016-.434.071-.644.088-.321-.678-.965-.678-.965s-.75-3.64-2.34-2.453c-1.587 1.188-1.328 2.837-1.328 2.837z"/>
                <path fill="#000" fill-rule="nonzero" d="M41.75 61.654s-1.75.358-1.161.66c.588.303 1.16-.66 1.16-.66z" opacity=".1"/>
                <g opacity=".1">
                    <path fill="#000" fill-rule="nonzero" d="M3.293 2.461c-.075-.255-.283-.45-.543-.509-.377-.057-.693.272-.914.58-.232.328-.444.67-.634 1.023-.057.106-.155.45-.255.51C.81 4.143.742 3.93.695 3.81.42 3.197.491 2.492.36 1.84.263 1.465.186 1.082.129.696c-.041.466.143.957.23 1.431.121.65.06 1.353.336 1.969.055.12.115.33.252.251.1-.06.204-.409.255-.507.19-.353.402-.695.634-1.022.22-.31.537-.64.914-.58.26.058.468.253.543.509.044.131.069.27.072.408.02-.233-.004-.468-.072-.693zM8.872.773c-.043.162-.128.309-.247.427-.325.272-.84.016-1.239.168-.082.03-.157.08-.243.104-.252.065-.497-.102-.72-.237-.223-.135-.531-.237-.725-.062-.252.23-.07.718-.33.939-.163.14-.423.092-.613.204-.19.113-.237.366-.284.583-.047.217-.137.466-.352.53-.214.063-.409-.076-.613-.068-.043 0-.094 0-.123-.025-.007-.007-.012-.016-.014-.026v.214c-.004.034.004.068.023.096.028.033.08.027.122.027.205 0 .42.127.613.068.195-.06.307-.311.352-.53.045-.219.096-.464.284-.583.188-.118.444-.067.614-.204.26-.22.077-.71.329-.938.194-.176.503-.076.725.059.223.135.469.305.72.237.083-.03.164-.064.243-.102.399-.151.914.104 1.24-.168.118-.118.203-.265.247-.427.09-.219.15-.448.18-.683.009-.08.009-.16 0-.239-.04.218-.103.431-.189.636z" transform="translate(41.49 44.208)"/>
                </g>
                <g transform="translate(0 66.029)">
                    <ellipse cx="19.119" cy="22.104" fill="#444053" fill-rule="nonzero" rx="6.547" ry="1.259"/>
                    <ellipse cx="19.119" cy="22.584" stroke="#F3431C" stroke-width=".64" rx="19.119" ry="3.84"/>
                    <circle cx="19.01" cy="21.57" r="1" fill="#3F3D56" fill-rule="nonzero"/>
                    <circle cx="19.01" cy="20.351" r="1" fill="#3F3D56" fill-rule="nonzero"/>
                    <circle cx="19.01" cy="19.132" r="1" fill="#3F3D56" fill-rule="nonzero"/>
                    <circle cx="19.01" cy="17.911" r="1" fill="#3F3D56" fill-rule="nonzero"/>
                    <circle cx="19.01" cy="16.692" r="1" fill="#3F3D56" fill-rule="nonzero"/>
                    <circle cx="19.01" cy="15.473" r="1" fill="#3F3D56" fill-rule="nonzero"/>
                    <circle cx="19.01" cy="14.254" r="1" fill="#3F3D56" fill-rule="nonzero"/>
                    <path fill="#444053" fill-rule="nonzero" d="M21.863 5.909c.104-.133.198-.273.283-.42l-2.002-.328 2.165.016c.42-.913.445-1.96.07-2.892l-2.905 1.507 2.685-1.973C21.474.64 20.187-.062 18.823.004c-1.364.067-2.577.889-3.144 2.13-.567 1.243-.394 2.697.45 3.771-.163.206-.302.43-.416.666l2.598 1.35-2.771-.93c-.397 1.168-.176 2.458.589 3.428-1.178 1.496-1.007 3.647.392 4.939 1.398 1.292 3.556 1.292 4.954 0 1.4-1.292 1.57-3.443.392-4.94 1.042-1.324 1.042-3.188 0-4.513l-.004.004z"/>
                    <path fill="#000" fill-rule="nonzero" d="M15.341 8.164c0 .82.275 1.615.783 2.258-1.178 1.497-1.007 3.647.392 4.94 1.399 1.291 3.556 1.291 4.955 0 1.398-1.293 1.57-3.443.392-4.94.49-.62-6.522-2.667-6.522-2.258z" opacity=".1"/>
                </g>
                <g transform="translate(98.28 73.589)">
                    <ellipse cx="19.119" cy="22.584" stroke="#F3431C" stroke-width=".64" rx="19.119" ry="3.84"/>
                    <ellipse cx="19.119" cy="22.104" fill="#444053" fill-rule="nonzero" rx="6.547" ry="1.259"/>
                    <circle cx="19.01" cy="21.57" r="1" fill="#3F3D56" fill-rule="nonzero"/>
                    <circle cx="19.01" cy="20.351" r="1" fill="#3F3D56" fill-rule="nonzero"/>
                    <circle cx="19.01" cy="19.132" r="1" fill="#3F3D56" fill-rule="nonzero"/>
                    <circle cx="19.01" cy="17.911" r="1" fill="#3F3D56" fill-rule="nonzero"/>
                    <circle cx="19.01" cy="16.692" r="1" fill="#3F3D56" fill-rule="nonzero"/>
                    <circle cx="19.01" cy="15.473" r="1" fill="#3F3D56" fill-rule="nonzero"/>
                    <circle cx="19.01" cy="14.254" r="1" fill="#3F3D56" fill-rule="nonzero"/>
                    <path fill="#444053" fill-rule="nonzero" d="M21.863 5.909c.104-.133.198-.273.283-.42l-2.002-.328 2.165.016c.42-.913.445-1.96.07-2.892l-2.905 1.507 2.685-1.973C21.474.64 20.187-.062 18.823.004c-1.364.067-2.577.889-3.144 2.13-.567 1.243-.394 2.697.45 3.771-.163.206-.302.43-.416.666l2.598 1.35-2.771-.93c-.397 1.168-.176 2.458.589 3.428-1.178 1.496-1.007 3.647.392 4.939 1.398 1.292 3.556 1.292 4.954 0 1.4-1.292 1.57-3.443.392-4.94 1.042-1.324 1.042-3.188 0-4.513l-.004.004z"/>
                    <path fill="#000" fill-rule="nonzero" d="M15.341 8.164c0 .82.275 1.615.783 2.258-1.178 1.497-1.007 3.647.392 4.94 1.399 1.291 3.556 1.291 4.955 0 1.398-1.293 1.57-3.443.392-4.94.49-.62-6.522-2.667-6.522-2.258z" opacity=".1"/>
                </g>
            </g>
        </g>
    </g>
</svg>
