<?xml version="1.0" encoding="UTF-8"?>
<svg width="142px" height="142px" viewBox="0 0 142 142" version="1.1" xmlns="http://www.w3.org/2000/svg" xmlns:xlink="http://www.w3.org/1999/xlink">
    <title>Brick&amp;Bolt_Payment_iIlustration Copy 4@1x</title>
    <defs>
        <rect id="path-1" x="0" y="0" width="142" height="142"></rect>
    </defs>
    <g id="Visual-Design_V2" stroke="none" stroke-width="1" fill="none" fill-rule="evenodd">
        <g id="Homepage_v7_Long" transform="translate(-194.000000, -1242.000000)">
            <g id="Brick&amp;Bolt_Payment_iIlustration-Copy-4" transform="translate(194.000000, 1242.000000)">
                <mask id="mask-2" fill="white">
                    <use xlink:href="#path-1"></use>
                </mask>
                <g id="Mask"></g>
                <g id="undraw_sync_files_xb3r-2" mask="url(#mask-2)" fill-rule="nonzero">
                    <g transform="translate(23.000000, 15.000000)">
                        <path d="M63.5496296,0 L2.15703704,0 C0.966284997,0.00131862602 0.00131862602,0.966284997 0,2.15703704 L0,85.12 C0.00134782484,86.3107399 0.966297111,87.2756892 2.15703704,87.277037 L63.5496296,87.277037 C64.7403578,87.2756609 65.7052906,86.3107282 65.7066667,85.12 L65.7066667,2.15703704 C65.7053188,0.966297111 64.7403696,0.00134782484 63.5496296,0 Z" id="Path" fill="#2F2E40"></path>
                        <path d="M4.05351396,2.65481481 C3.22276785,2.66890097 2.5600687,3.35256239 2.57169712,4.18334436 L2.57169712,83.0936927 C2.5600687,83.9244746 3.22276785,84.6081361 4.05351396,84.6222222 L61.6531527,84.6222222 C62.4838988,84.6081361 63.146598,83.9244746 63.1349695,83.0936927 L63.1349695,4.18334436 C63.146598,3.35256239 62.4838988,2.66890097 61.6531527,2.65481481 L4.05351396,2.65481481 Z" id="Path" fill="#F2F2F2"></path>
                        <path d="M7.05185185,6.30518519 C6.50287099,6.30518519 6.0562963,6.80917523 6.0562963,7.42874098 L6.0562963,18.2897775 C6.0562963,18.9093449 6.50287099,19.4133333 7.05185185,19.4133333 L58.6548148,19.4133333 C59.2037957,19.4133333 59.6503704,18.9093433 59.6503704,18.2897775 L59.6503704,7.42874098 C59.6503704,6.80917357 59.2037957,6.30518519 58.6548148,6.30518519 L7.05185185,6.30518519 Z" id="Path" fill="#CFCCDF"></path>
                        <path d="M7.05185185,24.6814815 C6.49443587,24.6900922 6.04912616,25.1481897 6.05621091,25.7056261 L6.05621091,48.9195591 C6.04912616,49.4769955 6.49443587,49.935093 7.05185185,49.9437037 L58.6548148,49.9437037 C59.2122308,49.935093 59.6575405,49.4769955 59.6504558,48.9195591 L59.6504558,25.7056261 C59.6575405,25.1481897 59.2122308,24.6900922 58.6548148,24.6814815 L7.05185185,24.6814815 Z" id="Path" fill="#CFCCDF"></path>
                        <rect id="Rectangle" fill="#F2F2F2" x="12.4444444" y="7.84" width="40.8177778" height="2.32296296"></rect>
                        <rect id="Rectangle" fill="#F2F2F2" x="12.5274074" y="12.7348148" width="40.8177778" height="1.07851852"></rect>
                        <rect id="Rectangle" fill="#F2F2F2" x="12.5274074" y="14.642963" width="40.8177778" height="1.07851852"></rect>
                        <rect id="Rectangle" fill="#F2F2F2" x="12.5274074" y="16.5511111" width="40.8177778" height="1.07851852"></rect>
                        <path d="M36.6966092,49.9851852 L55.4812392,49.9851852 C55.7258008,49.9851852 55.9462753,49.837844 56.0398723,49.6119016 C56.1334694,49.3859592 56.0817605,49.1258838 55.9088536,48.9529285 L43.8864351,36.93051 C43.6501348,36.6947458 43.2675847,36.6947458 43.0312844,36.93051 L40.0416211,39.9201733 C39.8037877,40.1580699 39.4811784,40.2917242 39.1447865,40.2917242 C38.8083945,40.2917242 38.4857853,40.1580699 38.2479519,39.9201733 L28.8839123,30.5561337 C28.6475796,30.3203711 28.265013,30.3203711 28.0286803,30.5561337 L9.71485013,48.8699655 C9.54194316,49.0429209 9.49023429,49.3029963 9.58383137,49.5289387 C9.67742845,49.7548811 9.89790286,49.902204 10.1424645,49.9022222 L36.7206718,49.9022222 L36.6966092,49.9851852 Z" id="Path" fill="#F2F2F2"></path>
                        <circle id="Oval" fill="#FFFFFF" cx="14.3525926" cy="30.157037" r="2.32296296"></circle>
                        <path d="M7.05185185,55.3777778 C6.49443587,55.3863885 6.04912616,55.844486 6.05621091,56.4019224 L6.05621091,79.6158554 C6.04912616,80.1732918 6.49443587,80.6313893 7.05185185,80.64 L58.6548148,80.64 C59.2122308,80.6313893 59.6575405,80.1732918 59.6504558,79.6158554 L59.6504558,56.4019224 C59.6575405,55.844486 59.2122308,55.3863885 58.6548148,55.3777778 L7.05185185,55.3777778 Z" id="Path" fill="#CFCCDF"></path>
                        <path d="M36.6966092,80.6814815 L55.4812392,80.6814815 C55.7258059,80.6814815 55.9462709,80.5340921 56.0398637,80.3081424 C56.1334564,80.0821928 56.0817523,79.8221142 55.9088536,79.6491435 L43.8864351,67.6268146 C43.6500684,67.391211 43.267651,67.391211 43.0312844,67.6268146 L40.0416211,70.6163966 C39.8038229,70.8543905 39.4811818,70.9881106 39.1447458,70.9881106 C38.8083099,70.9881106 38.4856688,70.8543905 38.2478706,70.6163966 L28.8839123,61.2524383 C28.6475129,61.0168371 28.2650797,61.0168371 28.0286803,61.2524383 L9.71485013,79.5661805 C9.54195138,79.7391512 9.49024733,79.9992298 9.58384004,80.2251795 C9.67743276,80.4511291 9.89789782,80.59847 10.1424645,80.5985185 L36.7206718,80.5985185 L36.6966092,80.6814815 Z" id="Path" fill="#F2F2F2"></path>
                        <circle id="Oval" fill="#FFFFFF" cx="14.3525926" cy="60.8533333" r="2.32296296"></circle>
                        <path d="M23.7274074,19.0814815 C22.903059,19.0824388 22.2350314,19.7504664 22.2340741,20.5748148 L22.2340741,103.537778 C22.2350031,104.362138 22.9030473,105.030182 23.7274074,105.031111 L85.12,105.031111 C85.9443722,105.030211 86.6124335,104.36215 86.6133333,103.537778 L86.6133333,20.5748148 C86.6124043,19.7504547 85.9443601,19.0824105 85.12,19.0814815 L23.7274074,19.0814815 Z" id="Path" fill="#2F2E40"></path>
                        <path d="M25.5409214,21.4044444 C24.7101753,21.4185306 24.0474761,22.102192 24.0591045,22.932974 L24.0591045,101.843322 C24.0474761,102.674104 24.7101753,103.357766 25.5409214,103.371852 L83.1405601,103.371852 C83.9713062,103.357766 84.6340054,102.674104 84.6223769,101.843322 L84.6223769,22.932974 C84.6340054,22.102192 83.9713062,21.4185306 83.1405601,21.4044444 L25.5409214,21.4044444 Z" id="Path" fill="#F2F2F2"></path>
                        <path d="M34.5540741,32.8836347 C34.1876942,32.8840535 33.8907892,33.1809586 33.8903704,33.5473384 L33.8903704,36.5935526 C33.8907892,36.9599324 34.1876942,37.2568375 34.5540741,37.2572563 L73.7125926,37.2572563 C74.0789842,37.2568658 74.3762963,36.9599442 74.3762963,36.5935526 L74.3762963,33.5473384 C74.3762963,33.1809469 74.0789842,32.8840252 73.7125926,32.8836347 L34.5540741,32.8836347 Z" id="Path" fill="#F3431C"></path>
                        <path d="M34.3051852,42.9646933 C34.2135965,42.9648131 34.1392593,43.0390305 34.1392593,43.1306193 L34.1392593,44.3198104 C34.1392593,44.4113995 34.2135961,44.4856175 34.3051852,44.4857363 L74.1274074,44.4857363 C74.2190079,44.4856448 74.2933333,44.4114108 74.2933333,44.3198104 L74.2933333,43.1306193 C74.2933333,43.0390188 74.2190079,42.9647848 74.1274074,42.9646933 L34.3051852,42.9646933 Z" id="Path" fill="#F3431C"></path>
                        <path d="M34.3051852,46.8299195 C34.2135961,46.8300384 34.1392593,46.9042564 34.1392593,46.9958455 L34.1392593,48.1850366 C34.1392593,48.2766257 34.2135961,48.3508437 34.3051852,48.3509625 L74.1274074,48.3509625 C74.2190079,48.350871 74.2933333,48.276637 74.2933333,48.1850366 L74.2933333,46.9958455 C74.2933333,46.904245 74.2190079,46.830011 74.1274074,46.8299195 L34.3051852,46.8299195 Z" id="Path" fill="#F3431C"></path>
                        <path d="M34.3051852,50.6951507 C34.2135961,50.6952695 34.1392593,50.7694875 34.1392593,50.8610766 L34.1392593,52.0501848 C34.1392593,52.1417739 34.2135961,52.2159919 34.3051852,52.2161107 L74.1274074,52.2161107 C74.2190079,52.2160192 74.2933333,52.1417852 74.2933333,52.0501848 L74.2933333,50.8610766 C74.2933333,50.7694762 74.2190079,50.6952422 74.1274074,50.6951507 L34.3051852,50.6951507 Z" id="Path" fill="#F3431C"></path>
                        <path d="M34.2222222,58.4160474 C34.1306331,58.4161662 34.0562963,58.4903842 34.0562963,58.5819733 L34.0562963,59.7710815 C34.0562963,59.8626706 34.1306331,59.9368886 34.2222222,59.9370074 L74.0444444,59.9370074 C74.1360449,59.9369159 74.2103704,59.8626819 74.2103704,59.7710815 L74.2103704,58.5819733 C74.2103704,58.4903729 74.1360449,58.4161389 74.0444444,58.4160474 L34.2222222,58.4160474 Z" id="Path" fill="#F3431C"></path>
                        <path d="M34.2222222,62.2812919 C34.1306331,62.2814107 34.0562963,62.3556287 34.0562963,62.4472178 L34.0562963,63.6363259 C34.0562963,63.727915 34.1306331,63.802133 34.2222222,63.8022519 L74.0444444,63.8022519 C74.1360449,63.8021604 74.2103704,63.7279264 74.2103704,63.6363259 L74.2103704,62.4472178 C74.2103704,62.3556173 74.1360449,62.2813833 74.0444444,62.2812919 L34.2222222,62.2812919 Z" id="Path" fill="#F3431C"></path>
                        <path d="M34.2222222,66.1464351 C34.1306218,66.1465265 34.0562963,66.2207606 34.0562963,66.312361 L34.0562963,67.5015521 C34.0562963,67.5931526 34.1306218,67.6673866 34.2222222,67.667478 L74.0444444,67.667478 C74.1360574,67.6674167 74.2103704,67.5931651 74.2103704,67.5015521 L74.2103704,66.312361 C74.2103704,66.2207481 74.1360574,66.1464964 74.0444444,66.1464351 L34.2222222,66.1464351 Z" id="Path" fill="#F3431C"></path>
                        <path d="M34.2222222,70.0307876 C34.1306218,70.030879 34.0562963,70.105113 34.0562963,70.1967135 L34.0562963,71.3859046 C34.0562963,71.477505 34.1306218,71.5517391 34.2222222,71.5518305 L74.0444444,71.5518305 C74.1360574,71.5517692 74.2103704,71.4775175 74.2103704,71.3859046 L74.2103704,70.1967135 C74.2103704,70.1051005 74.1360574,70.0308489 74.0444444,70.0307876 L34.2222222,70.0307876 Z" id="Path" fill="#F3431C"></path>
                        <path d="M34.2222222,73.8960187 C34.1306218,73.8961102 34.0562963,73.9703442 34.0562963,74.0619447 L34.0562963,75.2511358 C34.0562963,75.3427362 34.1306218,75.4169702 34.2222222,75.4170617 L74.0444444,75.4170617 C74.1360574,75.4170004 74.2103704,75.3427487 74.2103704,75.2511358 L74.2103704,74.0619447 C74.2103704,73.9703317 74.1360574,73.89608 74.0444444,73.8960187 L34.2222222,73.8960187 Z" id="Path" fill="#F3431C"></path>
                        <path d="M34.2222222,77.7612499 C34.1306218,77.7613414 34.0562963,77.8355754 34.0562963,77.9271758 L34.0562963,79.1163669 C34.0562963,79.2079674 34.1306218,79.2822014 34.2222222,79.2822929 L74.0444444,79.2822929 C74.1360574,79.2822315 74.2103704,79.2079799 74.2103704,79.1163669 L74.2103704,77.9271758 C74.2103704,77.8355629 74.1360574,77.7613112 74.0444444,77.7612499 L34.2222222,77.7612499 Z" id="Path" fill="#F3431C"></path>
                        <path d="M34.2222222,81.6456024 C34.1306218,81.6456938 34.0562963,81.7199278 34.0562963,81.8115283 L34.0562963,83.0007194 C34.0562963,83.0923199 34.1306218,83.1665539 34.2222222,83.1666453 L74.0444444,83.1666453 C74.1360574,83.166584 74.2103704,83.0923324 74.2103704,83.0007194 L74.2103704,81.8115283 C74.2103704,81.7199153 74.1360574,81.6456637 74.0444444,81.6456024 L34.2222222,81.6456024 Z" id="Path" fill="#F3431C"></path>
                        <path d="M34.2222222,85.5108335 C34.1306218,85.510925 34.0562963,85.585159 34.0562963,85.6767595 L34.0562963,86.8659506 C34.0562963,86.957551 34.1306218,87.031785 34.2222222,87.0318765 L74.0444444,87.0318765 C74.1360574,87.0318152 74.2103704,86.9575635 74.2103704,86.8659506 L74.2103704,85.6767595 C74.2103704,85.5851465 74.1360574,85.5108949 74.0444444,85.5108335 L34.2222222,85.5108335 Z" id="Path" fill="#F3431C"></path>
                        <path d="M34.2222222,89.3760647 C34.1306218,89.3761562 34.0562963,89.4503902 34.0562963,89.5419906 L34.0562963,90.7311817 C34.0562963,90.8227822 34.1306218,90.8970162 34.2222222,90.8971077 L74.0444444,90.8971077 C74.1360574,90.8970464 74.2103704,90.8227947 74.2103704,90.7311817 L74.2103704,89.5419906 C74.2103704,89.4503777 74.1360574,89.376126 74.0444444,89.3760647 L34.2222222,89.3760647 Z" id="Path" fill="#F3431C"></path>
                        <circle id="Oval" fill="#F3431C" cx="83.7925926" cy="99.8874074" r="12.1125926"></circle>
                        <polygon id="Path" fill="#FFFFFF" points="82.6384119 105.000415 79.0129304 100.339224 81.1211852 98.6992119 82.8378548 100.906359 88.6368 94.7848533 90.5759763 96.6219852"></polygon>
                    </g>
                </g>
            </g>
        </g>
    </g>
</svg>