<svg xmlns="http://www.w3.org/2000/svg" xmlns:xlink="http://www.w3.org/1999/xlink" width="142" height="142" viewBox="0 0 142 142">
    <defs>
        <path id="prefix__a" d="M0 0H142V142H0z"/>
    </defs>
    <g fill="none" fill-rule="evenodd">
        <mask id="prefix__b" fill="#fff">
            <use xlink:href="#prefix__a"/>
        </mask>
        <g mask="url(#prefix__b)">
            <g transform="translate(21 18)">
                <circle cx="48.498" cy="62.652" r="39.831" fill="#F2F2F2" fill-rule="nonzero"/>
                <path fill="#F3431C" d="M1.624 58.405l86.13-4.912c.957-.041 1.79.708 1.79 1.665l1.374 49.04c.041.957-.75 1.748-1.707 1.748l-87.213-.791c-.916 0-1.665-.75-1.707-1.707L0 60.112c0-.916.708-1.665 1.624-1.707z"/>
                <path fill="#8B89A5" fill-rule="nonzero" d="M38.174 65.899L36.425 65.316 36.633 64.691 37.091 64.317z"/>
                <path fill="#D64B34" fill-rule="nonzero" d="M42.586 56.157L37.05 67.023l-1.499 1.915S47.5 86.088 48.79 86.63c1.29.541 2.248.583 2.248.583l-1.207.832s3.913 4.83 4.08 4.954c.166.125-3.123 1.04-3.123 1.04s-2.414-1.373-2.914-1.914c-.5-.541-3.996-5.037-3.996-5.037s-4.62-4.08-4.829-4.58c-.208-.499-2.748-3.496-2.748-3.496l-3.247-5.12-1.248-4.122.333-3.58 5.744-8.742 4.704-1.29z"/>
                <path fill="#8B89A5" fill-rule="nonzero" d="M25.394 58.822s2.04 1.956 2.622 2.164l.708-1.29-2.373-.958h-.208l-.75.084z"/>
                <path fill="#CFCCDF" fill-rule="nonzero" d="M72.018 54.45l-29.307 1.583-4.537 9.866c-.333-.458-.708-.916-1.083-1.332l.042-.042-1.249-3.497-2.622-1.04-4.247-.875s-.125.208-.291.541c-1.915-.624-3.33-.874-3.33-.874l9.616-15.944 13.155-6.785 4.038 1.373 2.497 1.749 4.08-1.582 8.784 6.494 4.454 10.366z"/>
                <path fill="#A0616A" fill-rule="nonzero" d="M58.697 31.471c-.125 0-.167-.041-.167-.041l.208 6.203c.167.5.25.999.25 1.498 0 1.416-.75 2.706-2.789 3.08-5.412.417-8.242-5.453-8.242-5.453l-.625-11.49c-.208.625-2.498.584-3.164-2.955-.666-3.538 1.79-3.497 1.79-3.497l-.416-2.706.625-3.122 3.996-2.456s2.414-.541 2.664-.583c.25-.041 5.787-.79 5.787-.79s3.08 1.373 5.328 5.578c.291 16.485-4.33 16.818-5.245 16.734z"/>
                <path fill="#2F2E40" fill-rule="nonzero" d="M62.152 5.786s-1.582 2.082-6.494 0c-.791-.333-1.624-.457-2.456-.333-2.373.375-5.037 1.957-5.828 5.037 0 0-3.788-1.457-3.997 3.33-.208 4.788 3.913 7.827 3.913 7.827l1.041-4.704s2.415-.957 2.29-4.08c0 0 5.661 3.289 10.157-.624 0 0 3.247 1.998 3.206 4.662 0 0 .957-5.453-1.998-7.534 0 .041.624-2.332.166-3.58z"/>
                <path fill="#824E58" fill-rule="nonzero" d="M58.988 39.131c-3.122-1.04-4.87-9.7-4.87-9.7 1.706 2.54 4.496 1.874 4.496 1.874l.083.125c-.125 0-.167-.042-.167-.042l.208 6.203c.167.541.25 1.04.25 1.54z"/>
                <path fill="#2F2E40" fill-rule="nonzero" d="M89.669 20.315L85.09 33.22 86.921 33.761 91.75 20.939z"/>
                <path fill="#A0616A" fill-rule="nonzero" d="M86.505 27.891l-5.204 3.83s.833 2.581-.083 4.663c-.916 2.081-8.742 18.316-8.742 18.316l9.533-.999s1.998-13.53 6.036-17.276c2.623-2.164 3.955-2.914 4.163-3.663.208-.75-1.165-4.454-2.83-4.58-1.666-.124-1.999 3.414-1.999 3.414l-.541 1.957-1.374-.333c-.041-.042 1.665-4.829 1.041-5.329z"/>
                <path fill="#CFCCDF" fill-rule="nonzero" d="M37.091 64.525l-.041.042c-2.415-2.581-5.828-4.08-8.368-4.913.208-.333.292-.54.292-.54l4.246.873 2.623 1.041 1.248 3.497z"/>
                <path fill="#A0616A" fill-rule="nonzero" d="M54.867 93.374c-.25 1.374-2.456.583-2.456.583-.375 1.415-1.707.957-1.707.957-1.207.791-3.414-.291-4.121-.708-.708-.416-1.374-2.456-2.748-4.204-1.373-1.749-20.273-18.109-20.481-19.025-.167-.79 4.163-9.075 5.328-11.323 2.54.833 5.953 2.332 8.368 4.913l-2.623 4.495s3.08 3.622 6.578 9.242c3.496 5.62 5.952 6.994 7.451 7.785 1.54.79 3.663.083 3.58.999-.041.916-2.664 1.415-2.664 1.415s5.495 3.622 5.495 4.87z"/>
                <path stroke="#F3431C" stroke-width=".79" d="M99.285 0v13.321l-5.703.125-2.956 3.622s-2.58-2.581-3.58-3.83l-6.494.083V0h18.733z"/>
                <path stroke="#F3431C" stroke-width=".79" d="M85.881 6.952L88.462 9.533 94.206 3.83"/>
                <circle cx="8.992" cy="67.647" r="3.164" stroke="#FFF" stroke-width=".833"/>
                <circle cx="13.571" cy="67.647" r="3.164" stroke="#FFF" stroke-width=".833"/>
                <path stroke="#FFF" stroke-width=".833" d="M7.077 92L32.054 92M7.077 94.914L18.733 94.914"/>
                <path fill="#FFF" fill-rule="nonzero" d="M76.764 72.018l-13.654.458c-.542 0-.958-.416-1-.916l-.291-8.742c0-.541.416-.957.916-.999l13.654-.458c.541 0 .958.416 1 .916l.29 8.742c.042.541-.374 1-.915 1z"/>
                <path stroke="#FFF" stroke-width=".833" d="M80.052 97.62H60.778c-1.373 0-2.497-1.124-2.497-2.498h0c0-1.374 1.124-2.498 2.497-2.498h19.274c1.374 0 2.498 1.124 2.498 2.498h0c0 1.374-1.124 2.498-2.498 2.498z"/>
                <path stroke="#FF5029" stroke-width=".5" d="M60.903 65.149L78.929 64.608M60.903 68.48L78.929 67.938"/>
                <path stroke="#F3431C" stroke-width=".5" d="M72.143 57.531L72.684 75.557M66.731 57.531L67.272 75.557"/>
            </g>
        </g>
    </g>
</svg>
