<svg xmlns="http://www.w3.org/2000/svg" xmlns:xlink="http://www.w3.org/1999/xlink" width="270" height="135" viewBox="0 0 270 135">
    <defs>
        <path id="prefix__a" d="M0 0H270V135H0z"/>
    </defs>
    <g fill="none" fill-rule="evenodd">
        <mask id="prefix__b" fill="#fff">
            <use xlink:href="#prefix__a"/>
        </mask>
        <path fill="#352F22" fill-rule="nonzero" d="M12.487 129.778c1.663 3.083 5.192 4.407 5.192 4.407s.833-3.676-.83-6.76c-1.662-3.083-5.191-4.407-5.191-4.407s-.833 3.676.83 6.76z" mask="url(#prefix__b)"/>
        <path fill="#FF5029" fill-rule="nonzero" d="M13.63 128.763c3.002 1.806 4.158 5.394 4.158 5.394s-3.71.659-6.713-1.147c-3.002-1.806-4.158-5.394-4.158-5.394s3.711-.659 6.713 1.147z" mask="url(#prefix__b)"/>
        <path fill="#EDEDED" fill-rule="nonzero" d="M170.786 78.619c0 24.656-14.657 33.265-32.739 33.265-18.08 0-32.738-8.61-32.738-33.265 0-24.657 32.738-56.023 32.738-56.023s32.74 31.367 32.74 56.023z" mask="url(#prefix__b)"/>
        <path fill="#1D1A12" fill-rule="nonzero" d="M136.855 108.112L137.19 87.477 151.144 61.949 137.243 84.24 137.393 74.962 147.011 56.492 137.433 72.506 137.433 72.506 137.704 55.819 148.003 41.115 137.747 53.195 137.916 22.596 136.852 63.103 136.939 61.432 126.469 45.406 136.771 64.64 135.796 83.277 135.767 82.783 123.696 65.917 135.73 84.53 135.608 86.861 135.586 86.896 135.596 87.087 133.121 134.371 136.428 134.371 136.825 109.948 148.829 91.381z" mask="url(#prefix__b)"/>
        <path fill="#EDEDED" fill-rule="nonzero" d="M262.323 78.619c0 24.656-14.657 33.265-32.738 33.265-18.082 0-32.74-8.61-32.74-33.265 0-24.657 32.74-56.023 32.74-56.023s32.738 31.367 32.738 56.023z" mask="url(#prefix__b)"/>
        <path fill="#1D1A12" fill-rule="nonzero" d="M228.392 108.112L228.727 87.477 242.681 61.949 228.78 84.24 228.93 74.962 238.548 56.492 228.97 72.506 228.97 72.506 229.242 55.819 239.54 41.115 229.284 53.195 229.453 22.596 228.389 63.103 228.476 61.432 218.006 45.406 228.309 64.64 227.333 83.277 227.304 82.783 215.234 65.917 227.267 84.53 227.145 86.861 227.123 86.896 227.134 87.087 224.658 134.371 227.965 134.371 228.362 109.948 240.366 91.381z" mask="url(#prefix__b)"/>
        <circle cx="32.099" cy="85.882" r="12.524" fill="#EDEDED" fill-rule="nonzero" mask="url(#prefix__b)"/>
        <path fill="#1D1A12" d="M16.21 109.438L14.372 106.374 31.53 91.666 75.651 91.666 75.651 95.956 59.719 113.114 41.335 116.791z" mask="url(#prefix__b)"/>
        <path fill="#CCC" fill-rule="nonzero" d="M83.246 100.297L83.246 90.71 77.47 90.71 77.47 93.733 75.651 91.666 60.944 106.374 58.493 108.825 55.429 121.081 60.944 134.562 89.133 134.562 89.133 106.986z" mask="url(#prefix__b)"/>
        <path fill="#F2F2F2" fill-rule="nonzero" d="M14.372 106.374H60.945V134.563H14.372z" mask="url(#prefix__b)"/>
        <path fill="#352F22" fill-rule="nonzero" d="M44.705 115.259H54.51V123.838H44.705z" mask="url(#prefix__b)"/>
        <path fill="#CCC" fill-rule="nonzero" d="M32.143 114.953H40.722V134.563H32.143z" mask="url(#prefix__b)"/>
        <path fill="#352F22" fill-rule="nonzero" d="M22.338 118.017L22.338 114.953 18.661 114.953 18.661 118.017 22.031 118.017zM22.031 120.468L18.661 120.468 18.661 123.532 22.338 123.532 22.338 120.468zM24.789 114.953H28.466V118.017H24.789zM24.789 120.468H28.466V123.53200000000001H24.789zM74.119 118.323L74.119 115.259 70.443 115.259 70.443 118.323 73.813 118.323zM73.813 120.774L70.443 120.774 70.443 123.838 74.119 123.838 74.119 120.774zM76.571 115.259H80.248V118.32300000000001H76.571zM76.571 120.774H80.248V123.838H76.571z" mask="url(#prefix__b)"/>
        <path fill="#1D1A12" d="M104.636 109.421L102.798 106.357 119.957 91.65 164.078 91.65 164.078 95.939 148.145 113.098 129.761 116.774z" mask="url(#prefix__b)"/>
        <path fill="#CCC" fill-rule="nonzero" d="M171.673 100.28L171.673 90.693 165.896 90.693 165.896 93.716 164.078 91.65 149.371 106.357 146.92 108.808 143.856 121.064 149.371 134.546 177.559 134.546 177.559 106.97z" mask="url(#prefix__b)"/>
        <path fill="#F2F2F2" fill-rule="nonzero" d="M102.798 106.357H149.371V134.546H102.798z" mask="url(#prefix__b)"/>
        <path fill="#1D1A12" fill-rule="nonzero" d="M133.132 115.242H142.937V123.821H133.132z" mask="url(#prefix__b)"/>
        <path fill="#CCC" fill-rule="nonzero" d="M120.569 114.936H129.148V134.546H120.569z" mask="url(#prefix__b)"/>
        <path fill="#1D1A12" fill-rule="nonzero" d="M110.765 118L110.765 114.936 107.088 114.936 107.088 118 110.458 118zM110.458 120.451L107.088 120.451 107.088 123.515 110.765 123.515 110.765 120.451zM113.216 114.936H116.893V118H113.216zM113.216 120.451H116.893V123.51499999999999H113.216zM162.546 118.306L162.546 115.243 158.869 115.243 158.869 118.306 162.24 118.306zM162.24 120.758L158.869 120.758 158.869 123.822 162.546 123.822 162.546 120.758zM164.997 115.242H168.674V118.30600000000001H164.997zM164.997 120.758H168.674V123.822H164.997z" mask="url(#prefix__b)"/>
        <path fill="#1D1A12" d="M190.409 109.421L188.571 106.357 205.729 91.65 249.851 91.65 249.851 95.939 233.918 113.098 215.534 116.774z" mask="url(#prefix__b)"/>
        <path fill="#CCC" fill-rule="nonzero" d="M257.446 100.28L257.446 90.693 251.669 90.693 251.669 93.716 249.851 91.65 235.144 106.357 232.693 108.808 229.628 121.064 235.144 134.546 263.332 134.546 263.332 106.97z" mask="url(#prefix__b)"/>
        <path fill="#F2F2F2" fill-rule="nonzero" d="M188.571 106.357H235.144V134.546H188.571z" mask="url(#prefix__b)"/>
        <path fill="#1D1A12" fill-rule="nonzero" d="M218.905 115.242H228.71V123.821H218.905z" mask="url(#prefix__b)"/>
        <path fill="#CCC" fill-rule="nonzero" d="M206.342 114.936H214.92100000000002V134.546H206.342z" mask="url(#prefix__b)"/>
        <path fill="#1D1A12" fill-rule="nonzero" d="M196.537 118L196.537 114.936 192.86 114.936 192.86 118 196.231 118zM196.231 120.451L192.86 120.451 192.86 123.515 196.537 123.515 196.537 120.451zM198.989 114.936H202.666V118H198.989zM198.989 120.451H202.666V123.51499999999999H198.989zM248.319 118.306L248.319 115.243 244.642 115.243 244.642 118.306 248.012 118.306zM248.012 120.758L244.642 120.758 244.642 123.822 248.319 123.822 248.319 120.758zM250.77 115.242H254.447V118.30600000000001H250.77zM250.77 120.758H254.447V123.822H250.77zM181.94 116.346H182.94V134.561H181.94z" mask="url(#prefix__b)"/>
        <path fill="#FF5029" fill-rule="nonzero" d="M186.657 118.667c.03 6.37-4.451 11.554-4.451 11.554s-4.53-5.143-4.559-11.512c-.029-6.37 4.452-11.554 4.452-11.554s4.53 5.143 4.558 11.512z" mask="url(#prefix__b)"/>
        <path fill="#1D1A12" fill-rule="nonzero" d="M98.012 115.885H99.012V134.1H98.012z" mask="url(#prefix__b)"/>
        <path fill="#FF5029" fill-rule="nonzero" d="M102.73 118.206c.029 6.37-4.453 11.554-4.453 11.554s-4.528-5.143-4.558-11.512c-.03-6.37 4.452-11.554 4.452-11.554s4.529 5.143 4.558 11.512z" mask="url(#prefix__b)"/>
        <path fill="#000" fill-rule="nonzero" d="M102.73 118.206c.029 6.37-4.453 11.554-4.453 11.554s-4.528-5.143-4.558-11.512c-.03-6.37 4.452-11.554 4.452-11.554s4.529 5.143 4.558 11.512z" mask="url(#prefix__b)" opacity=".1"/>
        <path fill="#1D1A12" fill-rule="nonzero" d="M92.017 115.885H93.017V134.1H92.017z" mask="url(#prefix__b)"/>
        <path fill="#FF5029" fill-rule="nonzero" d="M96.734 118.206c.03 6.37-4.452 11.554-4.452 11.554s-4.528-5.143-4.558-11.512c-.03-6.37 4.452-11.554 4.452-11.554s4.529 5.143 4.558 11.512z" mask="url(#prefix__b)"/>
        <path fill="#1D1A12" fill-rule="nonzero" d="M7.772 134.101H269.933V135.101H7.772z" mask="url(#prefix__b)"/>
    </g>
</svg>
